# xmcd
#
# Track frame offsets: 
#        150
#        13748
#        29613
#        44351
#        57576
#        71593
#        86499
#        101165
#        116190
#        133982
#        148569
#        164778
#
# Disc length: 2426 seconds
#
# Revision: 0
# Processed by: cddbd v1.5.2PL0 Copyright (c) Steve Scherf et al.
# Submitted via: ExactAudioCopyFreeDBPlugin 1.0
#
DISCID=bb09780c
DTITLE=Una Healy - The Waiting Game
DYEAR=2017
DGENRE=Country
TTITLE0=Battlelines
TTITLE1=The Waiting Game
TTITLE2=Stay My Love [feat. Sam Palladio]
TTITLE3=All You Ever Need Is Love
TTITLE4=S.O.S.
TTITLE5=Please Don't Tell Me
TTITLE6=Staring At The Moon
TTITLE7=Alarm Bells
TTITLE8=Craving You
TTITLE9=Out The Door
TTITLE10=Grow Up Not Old
TTITLE11=Angel Like You
EXTD=
EXTT0=
EXTT1=
EXTT2=
EXTT3=
EXTT4=
EXTT5=
EXTT6=
EXTT7=
EXTT8=
EXTT9=
EXTT10=
EXTT11=
PLAYORDER=
